<?xml version="1.0" encoding="UTF-8"?>
<svg id="Camada_1" data-name="Camada 1" xmlns="http://www.w3.org/2000/svg" viewBox="0 0 517.62 538">
  <defs>
    <style>
      .cls-1 {
        fill: #0a0a0c;
      }

      .cls-2 {
        fill: #1f1f20;
      }

      .cls-3 {
        fill: #010101;
      }

      .cls-4 {
        fill: #f8f8fc;
      }

      .cls-5 {
        fill: #93dc1d;
      }

      .cls-6 {
        fill: #8eb56e;
      }

      .cls-7 {
        fill: #061701;
      }

      .cls-8 {
        fill: #010309;
      }

      .cls-9 {
        fill: #020207;
      }

      .cls-10 {
        fill: #030303;
      }

      .cls-11 {
        fill: #0d0d0d;
      }

      .cls-12 {
        fill: #011c40;
      }

      .cls-13 {
        fill: #f8f7f9;
      }

      .cls-14 {
        fill: #030209;
      }

      .cls-15 {
        fill: #030305;
      }

      .cls-16 {
        fill: #92dd1a;
      }

      .cls-17 {
        fill: #091901;
      }

      .cls-18 {
        fill: #94e30d;
      }

      .cls-19 {
        fill: #0a0a0a;
      }

      .cls-20 {
        fill: #fefefe;
      }

      .cls-21 {
        fill: #fdfdfd;
      }
    </style>
  </defs>
  <path class="cls-18" d="M126.58,298c1.37-1.92,2.03-.86,3,1,6.86-2.11,16.47,5.32,21.87,9.98,3.68,3.17,13.51,13.55,14.56,17.72.29,1.13.02,2.26-.43,3.31,2.57.79,3.23,1.79,2,3l3.19,1.89c10.36,21.24,19.24,43.29,27.57,65.4l-.76,3.72c-.28,1.32.02,1.72,1,1l-.36-2.18c11.57-11.23,23.27-22.34,35.12-33.35,3.39-2.96,12.21-6.22,14.24-1.48,1.64-2.42,2.39-1.76,2,1l2.36-.82c7.02,5.55,13.19,12.28,18.5,19.46l-.85,2.36c2.79-.89,3.85.73,2,3,2.5,5.15,4.51,12.12.64,17.14-17.51,18.97-32.3,42.54-49.67,61.33-16.19,17.52-36.34,15.62-55.97,4.53q-2.5-4.73,0,0c-.45,7.45-.82,15.65-1,23-.74.78-1.51,1.52-2.37,2.15s-1.67,1.2-2.58,1.49c-50.04,15.47-103.99,16.47-153.44-.55l-3.61-3.08c.27-39.88,2.95-80.9,8.01-120.49,1.05-8.2,2.72-16.35,3.99-24.51l2.2-.77c15.55,10.34,30.07,15.57,46.79,4.3s17.07-21.96,17.82-39.56c9-4.95,16.98-9.76,19.02-20.89l2.17-1.08c.96-3.67,19.33-1.64,21.1-.43l1.9,2.43Z"/>
  <path d="M99.58,58l1.89.95-15.66,121.42c.12.28,5.15.99,6.11.43,25.92-45.25,90.99-7,52.78,35.39l2,2.29c12.11,6.51,14.98,14.31,4.83,24.34,8.88,21.15-5.2,28.41-22.9,33.56.11,7.03,1.33,13.96,2.58,20.88l-1.62,1.74c-1.01-.3-2.12-.78-3-1l-2.82-1.45c-.81-6.16-1.18-12.36-1.13-18.61-5.12.79-14.57-.37-7.9-6.1,6.95,1.08,37.93-8.59,33.02-18.57-10.61,5.23-24.43-4.33-6.28-5.48,3.85.59,4.97-1.94,3.35-7.61,5.27-4.56,7.03-8.27,5.29-11.14-8.24-3.7-12.91-9.33-13.33-18.58-3.74,5.92-12.56,12.7-19.2,11.03.77.1,1.82.27,2,.88.25.88.23,14.86,0,16.2l-2,1.42c-3.36,4.52-6.3,1.56-8.83-8.89-3.47-5.92-15.94-4.47-15.36,4.31s8.04,11.19,15.45,10.32c5.61,11.52,3.94,24.2-11.17,24.07,3.09,4.63,5.63,8.63,6.97,14.08.84,3.44,2.57,10.72-1.06,12.11-.72,6.89-5.45,14.43-11.06,18.44-1.93,1.37-7.68,3.28-8.45,4.55-1.3,2.13-.2,10.91-.6,14.4-1.9,16.72-21.78,32.94-38.39,32.68-8.19-.13-23.34-6.66-29.51-12.08-18.33-16.11-19.72-41.18-8.19-61.69,1.29-2.29,5.48-6.27,5.98-8.02.9-3.13.04-8.31.66-12.34,1.24-8,7.49-17.31,14.22-21.78,2.71-1.8,12.81-4.72,13.18-5.32.5-.81-.08-3.13.66-4.82.92-2.1,6.44-5.17,6.56-5.71.52-2.54-3.31-10.45-3.81-14.07-3.03-22.04,14.07-39.07,35.7-38.29,5.92-41.22,10.35-82.7,16.05-123.95.46-2.89,2.22-2.72,3,0Z"/>
  <path class="cls-12" d="M498.58,3c2.08,1.59,3.17,2.56,3.89,5.12,1.27,4.53-.21,37.15-2.85,39.01-1.63,1.15-2.26.8-3.04-1.13-4.5,1.01-9.05,1.99-13.67,2.13-113.66,3.26-230.65,6.68-345.21,11.21-13.04,1.29-25.74.84-38.12-1.34h-3c2.23-16.13.2-37,21.62-37.88C230.59,14.48,342.81,7.28,455.07,1.99c14.95-.7,29.47-4.63,43.51,1.01Z"/>
  <path d="M498.58,3c8.67,3.48,18.83,7.45,19.04,18.45l-32.05,319.04c-1.79,12.52-4.06,18.67-17.77,20.23-7.5.85-13.48-1.74-20.72.36l-129.5-13.09c1.53,8.71-3.62,8.52-8.03,12.48-6.78,6.1-12.85,15.27-19.5,20.5-5.91,4.65-13.77,6.12-18.48,12.02-.31-.65-1.42-2.03-2-3l.59-2.88c14.77-6.75,24.82-16.95,35.13-29.31,20.68-15.33-2.04-3.99-8.85,1.64-5.59-.39-4.46-5.47-.42-7.99,36.01-19.98,10.18-13.64-6.44.15-12.72,1.37,3.4-12.94,8.24-13.93,1.55.43,24.54-11.43,13.23-8.64-8.54,2.11-16.65,7.44-23.79,12.44-5.56,3.48-9.15-1.73-4.24-5.87,7.7-4.6,15.61-8.82,23.71-12.65-25.11,4.6-41.07,23.88-53.96,45.03l-3.19,1.01c-.24-.15-1.89-.98-2-1l-1.15-1.86,14.35-21.51-90.73-9.36-2.47-2.27c-.2-.4-1.28-1.66-2-3l.89-1.92,98.6,10c9.82-8.33,21.15-16.37,33.84-20.39,6.65-2.11,12.41-3.87,15.1,4.38,6.35,2.23,8.46,6.55,4.9,12.55,1.48,2.85,1.97,5.77,1.47,8.76l122.83,12.62c16.82.33,19.63-2.45,22.37-18.76l28.89-290.19,2.11-1.04c.72.08,1.79.28,2.02-.65,1.57-6.38,2.92-30.47,1.92-36.79l-1.94-5.56Z"/>
  <path class="cls-3" d="M165.58,499c-.31,12.97.23,26.02,0,39H3.58c.07-12.99-.09-26.01,0-39,13.85,3.76,27.54,8.42,41.79,10.71,40.19,6.47,81.69,1.67,120.21-10.71Z"/>
  <path class="cls-2" d="M356.58,393.99c-.94.94-3.1-.76-4.04-1.45-3.07-2.25-16.24-15.43-18.5-18.5-2.95-4.01-2.01-5.39,2.05-2.05,4.55,3.74,15.89,13.66,19.04,17.96.69.94,2.39,3.1,1.45,4.04Z"/>
  <path class="cls-1" d="M331.58,405.99c-2.4.38-2.65-1.51-3.3-3.19-2.93-7.56-4.09-18.68-5.69-26.8,2.19-.36,2.4.91,2.95,2.54,2.71,8.11,3.99,18.96,6.04,27.45Z"/>
  <path class="cls-19" d="M364.58,369.99c-.88.76-20.39-4.84-22.55-5.94-.78-.39-3.83-1.85-2.44-3.05.88-.76,20.33,4.92,22.57,5.92,1.08.48,3.68,1.98,2.42,3.07Z"/>
  <path class="cls-20" d="M496.58,46l-29.01,291.49c-2.38,17.1-6.92,21.06-24.48,20.5l-126.51-13c4.54-3.89.35-7.92.36-10.49.01-1.7,2.49-3.36,1.48-6.79-.8-2.69-4.37-2.77-5.81-4.24-1.75-1.78-.94-4.91-4.58-5.48-7.06-1.11-27.84,10.42-33.93,15.03-3.03,2.3-5.01,6.73-8.98,7.04l-99.54-10.06c-7.71-14.27-20.16-26.28-36-31-1.02-3.2-3.74-22.54-2.87-23.88.69-1.06,17.18-4.61,22.34-11.16,7.64-9.72-.13-14.98.52-21.44.39-3.82,7.87-4.85,5.81-13.81-1.13-4.92-13.34-8.38-12.63-13.04.24-1.6,5.47-7.28,6.66-9.36,8.85-15.47,6.47-32.15-10.44-40.2-15.31-7.29-30.79-3.72-41.37,9.38-5.39,6.67-1.43,9.1-14,6.49l16-124c15.74,0,31.79-.44,47.54-.96,95.91-3.17,192-7.2,287.92-10.08,20.53-.62,41-.77,61.54-.96Z"/>
  <path class="cls-21" d="M103.58,296c.47-4.55-.37-10.41-1.7-14.8-1.04-3.43-7.93-12.77-7.3-13.19,2.52-1.69,13.45,1.74,14.94-7.57.37-2.34-.48-12.36-1.95-13.45-.21-.16-2.72,1.18-5.22.82-14.11-1.98-16.31-26.1,3.49-21.55,6.62,1.52,6.7,12.66,7.86,13.61.61.5,2.8-.07,3.89.12v-18.5c0-.64,9.27-3.86,11.5-5.5,4.05-2.98,6.21-7.48,9.49-11-.04,6.04.62,13.83,5.49,18.02,4.12,3.54,12.4,4.19,7.93,11.9-1.17,2.02-4.8,4-5.27,5.81-.6,2.3,1.67,5.65.74,7.15-1.19,1.9-10.4,2.54-12.87,2.13-.99,2.39,3.38,2.91,4.64,2.93,4.99.07,12.44-5.86,10.15,4.35-1.44,6.43-12.39,12.01-18.25,13.76-3.06.92-15.94,2.38-16.55,2.96-3.37,3.21,9.57,1.54,10.01,1.98.78.78-.74,18.97,1.99,22.01-2.5-.62-9.71-1.7-12.51-1.99-3.39-.36-7.07.22-10.49,0Z"/>
  <path class="cls-20" d="M269.58,390c-3.27-5.43-14.71-17.78-20-21,10.28-14.01,18.28-29.66,33.69-38.81,4.27-2.53,18.48-9.27,22.84-9.25,3.92.01,4.65,2.07,1.18,4.27s-24.68,10.38-24.69,14.29,6.65-2.05,8.07-2.91c4.6-2.82,15.52-9.19,20.54-9.56,2.79-.21,6.55,1.16,4.26,4.32-1.92,2.65-11.84,5.51-15.57,7.47-2.18,1.15-13.23,7.98-13.29,9.69-.02.64,1.44,1.83,2.99,1.02,1.63-.86,4.66-4.15,7.32-5.69,2.38-1.38,15.45-8.09,17.06-7.7,3.42.84,2.06,4.91.15,6.91-2.79,2.92-20.23,9.81-19.54,13.44.34,1.79,1.24,1.24,2.48.51,3.51-2.09,15.15-12.83,18.08-6.98,1.82,3.64-4.67,5.7-6.59,7.45-6.83,6.25-12.82,14.87-19.5,20.5-6.01,5.06-13.29,7.31-19.47,12.03Z"/>
  <path class="cls-7" d="M166.58,476c-20.92-11.82-60.21-62.25-67.2-85.3-1.35-4.47-.68-7.41,2.24-2.24,18.6,32.87,27.43,50.45,55.94,77.06,1.52,1.41,9.61,7.07,9.95,7.6.56.86-.9,2.31-.94,2.89Z"/>
  <path class="cls-17" d="M198.58,405c1.2,3.91,1.72,18.5.99,22.49-.31,1.71-1.07,2.81-2.99,2.5.19-7.42-.1-14.82-.37-22.23-.06-1.64-1.37-2.89,1.36-3.76.1.29.88.63,1,1Z"/>
  <path class="cls-8" d="M431.29,18.2c11.19-3.35,9.98,17.32.79,17.9-9.87.62-7.09-16.01-.79-17.9Z"/>
  <path class="cls-9" d="M452.31,17.16c9.87-1.52,7.49,20.26-2.17,18.87-7.37-1.06-5.38-17.71,2.17-18.87Z"/>
  <path class="cls-14" d="M479.35,18.24c4.1,4.1-.45,19.99-8.74,16.24-8.62-3.9.74-24.25,8.74-16.24Z"/>
  <path class="cls-12" d="M166.28,209.19c3.45-1.03,17.21-.35,21.85-.23,8.52.21,18.35,1.71,26.92,2.08,60.14,2.6,120.48,5.31,180.83,8.17,2.77.99,5.72,3.02,5.76,6.24-2.14,14.35-.09,33.07-3.26,46.85-1.31,5.69-7.72,4.85-12.29,4.69l-221.55-21.44c-4.9-1.79-4.12-7.81-3.99-12.09.24-7.77.91-21.51,2.09-28.9.32-1.96,1.64-4.77,3.64-5.36Z"/>
  <path class="cls-10" d="M307.58,120.99c.25.25,4.09-.23,5.45.06,4.8,1.01,7.41,4.64,7.63,9.43.84,17.51-6.61,40.76-6.14,58.95-3.3,13.87-16.4,8.87-26.4,8.52-15.89-.55-33.33-.17-49.06-1.94-8.77-.98-7.69-8.7-7.47-15.52,3.41-15.95,2.06-34.93,5.43-50.57,2.5-11.59,12.66-7.78,14.13-9.87.81-1.16,1.06-13.6,1.54-16.46,6.87-40.62,57.82-38.77,56.89-.13-.06,2.56-2.63,16.9-2,17.52Z"/>
  <path class="cls-11" d="M135.51,217.05c1.66,1.08,3.62,13.29.55,13.94-5.47,1.16-6.49-17.82-.55-13.94Z"/>
  <path class="cls-13" d="M301.59,236.99c.75.82,10.95-9.36,8.86-1.64-.59,2.18-4.2,2.47-4.86,4.64,9.16-.81,7.59,6.54-1,5.02.29,1.78,3.67,3.12,3.92,4.62.18,1.08-2.08,3.35-2.42,3.35-.59,0-4.77-5.52-5.49-4.98-.93.69-.26,8.68-3.5,7.99-2.6-.55-.99-7.24-1.53-7.99-.23-.32-6.16,5.47-6.99,1.48-.39-1.88,3.61-3.63,4-5.47-8.88.84-6.73-5.62,1-4.02-6.32-7.54-2.39-9.61,3.99-2.99.11-3.07.06-10.37,4.05-7.54,2.48,1.76-.82,6.67-.03,7.54Z"/>
  <path class="cls-4" d="M209.58,222c1.37,1.39-1.3,7.73-.99,7.99.94.78,10.85-9.37,8.84-1.66-.67,2.55-4.15,2.67-4.84,4.66,2.3-.35,7.13-.17,5.99,3.5-.73,2.36-5.4,1.11-5.99,1.52-.52.36,5.31,6.01,1.48,6.99-2.87.73-5.9-4.74-6.47-4-.38.48-.09,8.72-3.5,7.99s.32-7.87-.52-8.99c-.31-.41-8.82,8.02-6.84.67.4-1.49,2.5-2.12,2.85-3.66-1.1-.22-4.71.29-5-.01-.14-.14-.14-3.85,0-3.99.41-.43,5.35.45,6-.01.42-.3-3.35-3.77-3-5.47.93-4.54,6.66,1.73,6.99,1.48.34-.27.72-4.87,1.54-5.97s2.95-1.55,3.47-1.02Z"/>
  <path class="cls-5" d="M257.58,249c-3.84-2.53-2.38-6.57-5.55,1.98-2.25,6.07-4.48-2.81-3.46-5.98-1.92.45-4.93,4.92-6.98,2.99-1.63-1.52,3.34-5.65,2.99-5.98-.13-.13-2.28-.04-3.54-.96-5.61-4.07,4.01-3.55,4.54-4.05.75-.72-3.51-5.4-1.99-6.99,1.7-1.77,5.75,4.09,6.99,2.99.44-.39.61-6.85,1.51-7,6.12-1.06,1.56,6.93,2.5,8,1.14,1.3,6.46-6.32,8.99-3.99,1.94,1.79-3.97,5.47-4,7.48-.02,1.21,3.58.07,4.02.51.14.14.13,3.85,0,3.99-.39.4-5.51-.41-6,.01-1.38,1.18,1.58,2.52,2,2.99,1.97,1.86.65,4.41-2,4Z"/>
  <path class="cls-16" d="M345.58,231.99c.43.41-.43,6.5,0,7,1.03,1.17,6.65-5.51,7.99-3.99,1.98,2.25-1.94,4.51-2.28,4.96-3.24,4.34,3.91,2.36,3.28,5.52-.45,2.26-5.46,1.16-5.99,1.52-.7.48,9.78,13.94-4.99,2.99.9,1.67-.85,11.04-4.01,8-.46-.45.48-7.39,0-8-1.26-1.56-2.94,3.54-5.47,3-4.2-.9,1.45-5.17,1.46-5.5.01-2.14-5.47-.24-4.96-2.98.75-4.05,4.4-2.05,4.97-2.53.91-.75-3.26-4.76-1.99-5.99,1.45-1.4,7,3.04,7.99,1.99.4-.42-.38-5.62,0-6,.14-.14,3.85-.14,3.99,0Z"/>
  <path class="cls-6" d="M257.58,249c1.84-.52,2.17-2.26,2-4,.56.64,2.35.69,1.96,2.43s-2.24,2.7-3.96,1.57Z"/>
  <path class="cls-20" d="M244.29,124.2l67.84-.26c6.72.82,5.67,7.34,5.44,12.54-.76,17.1-5.16,35.62-6.08,52.91-1.5,9.15-15.17,6.79-22.45,6.63-13.6-.29-30.46-.94-43.94-2.06-5.95-.49-10.5-.53-11.01-7.45-1.19-16.18,5.92-39.05,5.57-55.96.41-2.69,2.24-5.11,4.64-6.36Z"/>
  <path class="cls-21" d="M297.58,121h-36c.33-13.86,2.74-37.16,21.5-37.08,19.44.08,17.68,23.72,14.5,37.08Z"/>
  <path class="cls-15" d="M278.58,140c5.95,1.01,6.74,8.55,5.94,13.45-.86,5.25-6.55,7.02-6.93,8.29-1.2,3.94-.06,18.12-4.01,19.26-2.06.12-2.49-1.7-2.41-3.44l2.32-15.04c-6.25-7.79-5.78-19.87,5.09-22.52Z"/>
  <path class="cls-12" d="M278.58,140c-5.3,4.11-8.64,9.15-6.75,16.26.57,2.13,3.48,3.83,3.64,6.18.33,4.68-3.55,12.89-1.89,18.56-8.67,2.52-2.3-14.24-2.94-19.54-.36-2.99-2.33-3.96-2.85-6.16-1.77-7.51,1.89-16.82,10.79-15.3Z"/>
</svg>