<?xml version="1.0" encoding="UTF-8"?>
<svg id="Camada_1" data-name="Camada 1" xmlns="http://www.w3.org/2000/svg" viewBox="0 0 188.06 126.67">
  <defs>
    <style>
      .cls-1 {
        fill: #0d2c55;
      }

      .cls-2 {
        fill: #92a2b6;
      }

      .cls-3 {
        fill: #0d2b55;
      }

      .cls-4 {
        fill: #133159;
      }

      .cls-5 {
        fill: #fdfeff;
      }

      .cls-6 {
        fill: #011c40;
      }

      .cls-7 {
        fill: #0a2953;
      }

      .cls-8 {
        fill: #0e2c56;
      }

      .cls-9 {
        fill: #284469;
      }

      .cls-10 {
        fill: #03234e;
      }
    </style>
  </defs>
  <path class="cls-6" d="M81.17,101.28c2.54,1.44,5.24,1.61,6.74,3.74-7.74-.69-16.42-5.46-22.85-9.72-16.15-10.7-27.11-27.32-33.07-45.61-1.64-5.05-2.38-13.22-5.12-17.37-4.44-6.74-17.8-6.19-23.42-14.79C1.4,14.39-1.65,2.05,1.09.03c.71-.53,6.68,5.48,8.99,6.36,7.71,2.95,19.47.66,20.95,12.39,2.1-1.85,2.57-5.22,4.74-7.24,5.3-4.9,15.57-2.87,20.74-7.35,1.22-1.05,4.9-7.45,5.93-1.52,1.58,9.12-2.08,16.25-9.77,20.91-3.56,2.16-13.3,4.71-14.14,9.08-1.6,8.24,9.01,16.74,16.41,18.02,22.33,3.86,33.76-14.57,50.92-24.05,25.86-14.3,67.1-14.46,78.64,17.98,2.19,6.16,5.14,22.36,2.57,28.14-4.86,10.92-35.97,4.33-46.2,6.95-5.16,1.32-10.36,7.54-14.41,8.07-2.35.31-.31-3.04-1.49-3.75-2.64,4.96-2.4,10.45-4.51,15.73-3.55,8.89-13.89,21.62-23.05,24.91-4.57,1.64-12.25,3.28-16.5.5-5.2-3.39,3.76-8.08,6.13-11.64,3.39-5.11,3.72-12.39,7.28-17.45,2.14-3.04,5.73-4.51,7.81-7.54-3.33.05-5.32,3.32-8.57,3.77-3.78.53-12.1-.81-16.13-1.53-4.25-.73-4.75-.48-1.5.75l15.71,3.01c-.48,1.43-4.35.78-5.52.65-5.63-.64-11.23-3.28-16.93-3.65.43,1.05,3.21,1.65,4.33,2.02,5.45,1.79,11.16,2.94,16.61,4.73l-6.13-.23c-3.67-.55-6.94-2.56-10.69-2.8-1.93-.12-2.08.09-.11.86s3.82,1.49,5.71,2.16c1.08,1,1.83,2,2.25,3Z"/>
  <path class="cls-8" d="M133.94,111.78c16.49-1.59,39.73-11.97,47.92-26.99.82-1.51,2.61-7.37,2.99-7.52,1.61-.62,1.23,1.69,1.07,2.58-.95,5.11-8.37,13.47-12.33,16.9-15.65,13.57-37.82,18.14-57.98,16.52-.3-.79,2.47-1.49,2.62-1.49,4.95,0,10.94.46,15.72,0Z"/>
  <path class="cls-4" d="M182.22,79.54c.15.15-1.37,3.22-1.76,3.85-6.67,10.78-24.64,20.75-36.69,23.99-8.09,2.17-18.5,4.19-26.66,2.89.08-1.05,3.39-1.32,4.21-1.4,20.03-1.79,40.11-5.44,54.15-21.49.81-.93,5.65-8.95,6.76-7.85Z"/>
  <path class="cls-3" d="M176.98,79.54c.76.71-7.64,8.88-8.63,9.72-13.38,11.32-31.58,17.48-49,18.01,2.6-3.1,8.15-1.71,11.53-2.32,11.86-2.12,27.17-8.98,36.39-16.79,1.22-1.04,8.69-9.58,9.72-8.63Z"/>
  <path class="cls-7" d="M168.74,81.03c.87.9-3.77,4.91-4.55,5.56-11.55,9.66-27.59,15.93-42.6,16.93,2.98-3.22,9.16-2.76,13.63-3.96,8.11-2.18,15.56-5.81,22.53-10.43,1.45-.56,10.34-8.79,10.99-8.1Z"/>
  <path class="cls-1" d="M123.83,99.02c2.45-2.9,7.55-2.4,11.08-3.52,9.46-2.99,17.39-9.18,25.59-14.48.86.87-2.39,3.52-3.05,4.06-8.59,7.08-22.58,13.12-33.62,13.93Z"/>
  <path class="cls-1" d="M153.03,81.79c-6.87,6.98-18.16,10.9-27.69,12.74-.36-1.94.35-1.33,1.49-1.84,3.6-1.65,8.39-2.33,12.49-4.02,4.71-1.94,8.95-5.08,13.72-6.87Z"/>
  <path class="cls-9" d="M78.92,98.28c3.17,1.12,6.52,1.97,9.72,3.01.15,1.41-1.57.61-2.4.53-1.61-.16-3.3-.93-5.08-.54-1.82-1.02-3.81-1.61-2.25-3Z"/>
  <path class="cls-2" d="M77.43,90.78l-1.5.75-8.23-2.99c3.28-.24,6.75,1.71,9.73,2.24Z"/>
  <path class="cls-5" d="M134.12,63.9c6.05-1.13,7.41,7.31,2.65,8.72-6.45,1.92-8-7.73-2.65-8.72Z"/>
  <path class="cls-10" d="M134.06,65.39c5.03-1.7,5.16,4.88,1.97,5.78-4.07,1.15-4.92-4.78-1.97-5.78Z"/>
</svg>